<?xml version="1.0" standalone="no"?>
<!DOCTYPE svg PUBLIC "-//W3C//DTD SVG 20010904//EN"
 "http://www.w3.org/TR/2001/REC-SVG-20010904/DTD/svg10.dtd">
<svg version="1.0" xmlns="http://www.w3.org/2000/svg"
 width="169.000000pt" height="139.000000pt" viewBox="0 0 169.000000 139.000000"
 preserveAspectRatio="xMidYMid meet">

<g transform="translate(0.000000,139.000000) scale(0.100000,-0.100000)"
fill="#ff6364" stroke="none">
<path d="M920 1255 c-101 -30 -137 -45 -255 -98 -113 -51 -270 -139 -300 -168
-19 -19 -19 -19 0 -55 10 -20 33 -47 49 -61 l30 -25 -24 -20 c-104 -81 -191
-157 -204 -179 -15 -25 -14 -28 14 -67 16 -23 42 -49 56 -59 25 -16 28 -16 55
-1 38 22 45 7 12 -23 -14 -13 -43 -46 -64 -72 -52 -66 -51 -92 6 -151 47 -49
72 -56 115 -31 35 20 38 19 53 -17 21 -50 90 -108 129 -108 35 0 107 41 255
145 208 145 501 306 657 360 82 29 123 48 129 62 13 29 -8 71 -39 79 -91 23
-360 -82 -647 -254 -32 -19 -61 -31 -65 -27 -4 3 1 11 11 17 10 5 42 29 70 52
29 23 120 93 202 156 83 62 151 117 153 121 8 20 -30 119 -50 133 -12 9 -20
17 -17 19 2 1 24 15 47 31 42 26 44 29 37 64 -4 20 -13 52 -20 70 -18 41 -35
41 -145 2 -47 -16 -88 -30 -92 -30 -5 0 -8 10 -8 23 0 18 -27 115 -34 123 -10
12 -56 8 -116 -11z"/>
</g>
</svg>
